<?xml version="1.0" standalone="no"?>
<!DOCTYPE svg PUBLIC "-//W3C//DTD SVG 20010904//EN"
 "http://www.w3.org/TR/2001/REC-SVG-20010904/DTD/svg10.dtd">
<svg version="1.0" xmlns="http://www.w3.org/2000/svg"
 width="300.000000pt" height="300.000000pt" viewBox="0 0 300.000000 300.000000"
 preserveAspectRatio="xMidYMid meet">
<metadata>
Created by potrace 1.11, written by Peter Selinger 2001-2013
</metadata>
<g transform="translate(0.000000,300.000000) scale(0.100000,-0.100000)"
fill="#000000" stroke="none">
<path d="M609 2385 c-104 -53 -147 -178 -99 -284 96 -210 411 -142 413 88 1
124 -83 212 -208 217 -47 2 -70 -3 -106 -21z"/>
<path d="M1568 1915 c-2 -2 -25 -6 -52 -9 -135 -18 -279 -115 -359 -242 -93
-148 -120 -435 -62 -657 35 -134 127 -248 245 -304 147 -70 384 -90 514 -44
138 49 213 120 299 284 43 82 44 87 24 88 -12 0 -31 2 -42 4 -11 2 -50 7 -87
11 -65 6 -68 6 -77 -18 -12 -31 -76 -117 -109 -146 -129 -112 -334 -70 -400
81 -31 70 -33 79 -38 168 -3 76 -2 87 14 91 9 3 163 4 342 3 232 -1 334 2 356
11 44 17 58 58 51 152 -11 174 -69 307 -176 409 -76 72 -196 114 -338 118 -56
2 -103 2 -105 0z m169 -205 c76 -33 104 -113 107 -301 l2 -107 -208 2 c-201 1
-208 2 -209 21 -3 47 2 183 7 220 9 62 42 130 74 154 58 42 145 46 227 11z"/>
<path d="M362 1810 c0 -44 2 -80 6 -81 15 -1 58 -9 78 -14 34 -8 75 -46 91
-84 21 -49 20 -655 -1 -704 -23 -55 -51 -72 -117 -72 l-58 0 2 -95 2 -95 363
0 363 0 -5 30 c-22 137 -24 140 -79 153 -24 6 -52 19 -64 29 -48 43 -48 41
-50 503 -1 239 -2 452 -2 473 l-1 37 -264 0 -264 0 0 -80z"/>
<path d="M2381 1718 c-66 -34 -86 -67 -86 -141 0 -77 27 -120 93 -149 121 -54
249 51 221 181 -23 105 -133 158 -228 109z"/>
<path d="M2388 1066 c-117 -50 -133 -213 -28 -282 82 -55 192 -27 237 60 52
101 -22 227 -136 232 -25 1 -58 -4 -73 -10z"/>
</g>
</svg>
