
<svg width="85px" height="18px" viewBox="0 0 85 18" version="1.1" xmlns="http://www.w3.org/2000/svg" xmlns:xlink="http://www.w3.org/1999/xlink">
    <g id="Designs" stroke="none" stroke-width="1" fill="none" fill-rule="evenodd">
        <g id="Desktop---Product-Page" transform="translate(-1022.000000, -486.000000)" fill-rule="nonzero">
            <g id="Group-6" transform="translate(1022.000000, 486.000000)">
                <g id="Afterpay-logo" transform="translate(0.000000, 0.000000)">
                    <path d="M41.6592336,8.87889353 C41.6592336,7.71327492 40.7064304,6.74186486 39.5770055,6.74186486 C38.4473973,6.74186486 37.4944107,7.71327492 37.4944107,8.87889353 C37.4944107,10.0270738 38.4473973,11.0161058 39.5770055,11.0161058 C40.7064304,11.0161058 41.6592336,10.0270738 41.6592336,8.87889353 Z M42.5593988,5.893992 C43.3535543,6.70643738 43.7946499,7.76614077 43.7946499,8.87889353 C43.7946499,9.99182991 43.3535543,11.0515333 42.5593988,11.8639787 C41.7652433,12.6586186 40.7064304,13.0826468 39.5770055,13.0826468 C38.8356715,13.0826468 38.1649494,12.8177668 37.5826298,12.2878233 L37.4944107,12.2173355 L37.4944107,16.9475444 L35.3591778,17.6219512 L35.3591778,4.83410505 L37.4944107,4.83410505 L37.4944107,5.47014736 L37.5826298,5.38167048 C38.2181376,4.76361725 38.9414978,4.67532393 39.5770055,4.67532393 C40.6888233,4.67532393 41.7476362,5.09935213 42.5593988,5.893992 Z" id="Fill-1" fill="#31322F"></path>
                    <path d="M46.6891909,8.87889353 C46.6891909,10.0446958 47.6421775,11.0161058 48.7717857,11.0161058 C49.9012106,11.0161058 50.8540138,10.0446958 50.8540138,8.87889353 C50.8540138,7.73089687 49.9012106,6.74186486 48.7717857,6.74186486 C47.6421775,6.74186486 46.6891909,7.73089687 46.6891909,8.87889353 Z M45.7890257,11.8639787 C44.9948702,11.0515333 44.5537746,9.99182991 44.5537746,8.87889353 C44.5537746,7.76614077 44.9948702,6.70643738 45.7890257,5.893992 C46.5831812,5.09935213 47.6421775,4.67532393 48.7717857,4.67532393 C49.512753,4.67532393 50.1834751,4.94020389 50.7657946,5.47014736 L50.8540138,5.54063516 L50.8540138,4.83410505 L52.98943,4.83410505 L52.98943,12.9238656 L50.8540138,12.9238656 L50.8540138,12.2878233 L50.7657946,12.3763002 C50.1306536,12.9943534 49.4069267,13.0826467 48.7717857,13.0826467 C47.6597846,13.0826467 46.6011552,12.6586185 45.7890257,11.8639787 Z" id="Fill-4" fill="#31322F"></path>
                    <polyline id="Fill-7" fill="#31322F" points="55.1252132 17.6219512 57.0489769 12.9414876 53.8193501 4.83410505 56.184026 4.83410505 58.1960089 9.86810911 60.2430227 4.83410505 62.5902752 4.83410505 57.4370677 17.6219512 55.1252132 17.6219512"></polyline>
                    <path d="M4.1312593,6.03717035 C2.57541146,6.03717035 1.30953125,7.31200838 1.30953125,8.87889353 C1.30953125,10.4457787 2.57541146,11.7206167 4.1312593,11.7206167 C5.68729055,11.7206167 6.95317073,10.4457787 6.95317073,8.87889353 C6.95317073,7.31200838 5.68729055,6.03717035 4.1312593,6.03717035 Z M4.1312593,12.996189 C3.0265945,12.996189 1.98685603,12.5739964 1.20388839,11.807258 C0.428073661,11.0133524 0,9.97273945 0,8.87889353 C0,7.78504767 0.428073661,6.74443469 1.20553906,5.94906059 C1.98703943,5.18397421 3.0265945,4.76178163 4.1312593,4.76178163 C5.24876265,4.76178163 6.18982774,5.35358549 6.78223476,5.84993712 L6.95317079,5.99311547 L6.95317079,4.9381847 L8.2628854,4.9381847 L8.2628854,12.8197859 L6.95317079,12.8197859 L6.95317079,11.7646716 L6.78223476,11.9076664 C6.18982774,12.4042016 5.24876265,12.996189 4.1312593,12.996189 Z" id="Fill-10" fill="#31322F"></path>
                    <path d="M10.6337973,12.8197859 L10.6337973,6.17851307 L9.4337604,6.17851307 L9.4337604,4.9381847 L10.6337973,4.9381847 L10.6337973,2.60878303 C10.6337973,1.18140498 11.7661566,0.0633288872 13.2119598,0.0633288872 L14.8589613,0.0633288872 L14.5266265,1.30365726 L13.2473575,1.30365726 C12.5527924,1.30365726 11.9433285,1.92997078 11.9433285,2.64421049 L11.9433285,4.9381847 L14.4316213,4.9381847 L14.4316213,6.17851307 L11.9433285,6.17851307 L11.9433285,12.8197859 L10.6337973,12.8197859" id="Fill-11" fill="#31322F"></path>
                    <path d="M19.3706082,12.8197859 C17.9488314,12.8197859 16.7924457,11.6618769 16.7924457,10.2390879 L16.7924457,6.17851307 L15.5922254,6.17851307 L15.5922254,4.9381847 L16.7924457,4.9381847 L16.7924457,0.0633288872 L18.1017935,0.0633288872 L18.1017935,4.9381847 L20.5902697,4.9381847 L20.5902697,6.17851307 L18.1017935,6.17851307 L18.1017935,10.203844 C18.1017935,10.9237742 18.7235457,11.5794576 19.4061893,11.5794576 L20.6850915,11.5794576 L21.0176098,12.8197859 L19.3706082,12.8197859" id="Fill-12" fill="#31322F"></path>
                    <path d="M25.0103962,6.09003623 C23.9979855,6.09003623 23.0580209,6.82061292 22.6710305,7.90803418 L22.6583754,7.93171365 L22.583545,8.08223452 L27.4383478,8.08223452 L27.3444431,7.89610266 C26.9816626,6.82134721 26.0413311,6.09003623 25.0103962,6.09003623 Z M25.0081953,12.9609451 C23.9833129,12.9602109 23.0404137,12.5336128 22.3528181,11.7595319 C21.7218955,11.0755799 21.3528791,10.2179783 21.284468,9.27777374 C21.2672277,9.154053 21.2672277,9.03767466 21.2672277,8.914321 C21.2672277,8.60556977 21.3020751,8.29222942 21.3706696,7.98311105 C21.5223478,7.27456174 21.8616522,6.61318791 22.3522679,6.06984438 C23.0358285,5.31724022 24.0047716,4.88531885 25.0103962,4.88531885 C26.0248244,4.88531885 26.9756101,5.30641006 27.6874156,6.07094576 C28.1982061,6.63686738 28.5375104,7.2973234 28.6673631,7.9799905 C28.7700714,8.58335876 28.7726392,8.9580088 28.7616347,9.14579268 L22.5239375,9.14579268 L22.5239375,9.28529978 C22.7066116,10.6811052 23.7591886,11.7375045 24.9735312,11.7562278 C25.7200008,11.7196989 26.4563828,11.4140682 26.9666231,10.9344207 L28.059183,11.5873507 C27.7626128,11.9017924 27.4451339,12.1604313 27.0917072,12.3757495 C26.5156235,12.7215803 25.7950145,12.9240491 25.0081953,12.9609451 Z" id="Fill-13" fill="#31322F"></path>
                    <path d="M30.0476897,12.8197859 L30.0476897,4.9381847 L31.3575878,4.9381847 L31.3575878,5.93437563 L31.5386112,5.73429306 C32.0029996,5.22142086 33.3681034,4.80345021 34.2756049,4.76471862 L33.9561086,6.07369918 C32.5158077,6.11500065 31.3575878,7.23876712 31.3575878,8.6140136 L31.3575878,12.8197859 L30.0476897,12.8197859" id="Fill-14" fill="#31322F"></path>
                    <path d="M73.897912,7.06842161 C74.676478,6.61740983 75.4084585,6.19319805 76.1912424,5.73979992 C75.937773,5.2946621 75.9995813,5.40167873 75.7686709,4.9816889 C75.5240051,4.53673463 75.6162592,4.36180005 76.1215478,4.35812881 C77.5928444,4.34784934 79.0645083,4.34656441 80.5358049,4.35427401 C80.9728657,4.35666031 81.0783253,4.54389354 80.8591527,4.92974085 C80.1313912,6.21063643 79.395559,7.48694295 78.6531247,8.7593947 C78.4159783,9.16561738 78.2085443,9.16469958 77.9607602,8.76728788 C77.7061907,8.35886239 77.7740516,8.45982153 77.501691,7.99687817 C76.7341295,8.44293381 75.9671186,8.88880587 75.2156967,9.32549988 C75.2608154,9.44334668 75.3184053,9.5189742 75.3655408,9.60102644 C75.9317204,10.587305 76.1846397,11.058325 76.7697105,12.0334064 C77.4629917,13.1889291 78.916315,13.2584991 79.7416499,12.1905354 C79.8333533,12.0717708 79.917354,11.9456638 79.9923677,11.8157019 C81.3809477,9.40846986 82.7702618,7.00178864 84.1505883,4.58978405 C84.2905281,4.34564659 84.416713,4.07893102 84.4774206,3.80652502 C84.7193355,2.72075585 83.9145427,1.69427719 82.7834671,1.68821964 C79.80786,1.67243331 76.8317022,1.670047 73.856095,1.69629636 C72.5007124,1.7082279 71.686198,3.06640307 72.2815399,4.26010671 C72.4755851,4.64870745 72.7083297,5.01803417 72.9264015,5.39451982 C73.3366843,6.10325264 73.4450787,6.28975164 73.897912,7.06842161" id="Fill-16" fill="#306E9A"></path>
                    <path d="M67.2816614,14.5054357 C67.2829455,13.6120395 67.2853297,11.8632444 67.2853297,11.8632444 C67.2853297,11.8632444 66.9194314,11.8593896 66.424964,11.8593896 C65.9215096,11.8593896 65.8177009,11.6813345 66.0662184,11.2457418 C66.7903122,9.97714493 67.5224761,8.71295351 68.2621594,7.45335114 C68.481882,7.07925176 68.6764774,7.04639417 68.916558,7.46234563 C69.6468878,8.72837271 70.3796017,9.99311486 71.1003938,11.2646487 C71.3305708,11.6705043 71.2263954,11.8481923 70.7621904,11.8630609 C70.2829458,11.8630609 69.873213,11.8625101 69.873213,11.8625101 L69.8730296,14.5125946 C69.8730296,14.5125946 71.8266885,14.5129618 72.9687685,14.5129618 C74.3045271,14.4931371 75.0882283,13.2799758 74.5838571,12.0392804 C74.527918,11.9014253 74.4617079,11.7665072 74.387611,11.6372796 C73.0159046,9.24565039 71.6447484,6.85365408 70.2649719,4.46661395 C70.1252149,4.22504636 69.9595979,3.98366235 69.7563823,3.79587843 C68.9460864,3.04712906 67.6651668,3.22683626 67.096603,4.1949422 C65.6005459,6.74223194 64.1158606,9.29668064 62.6557513,11.8647129 C61.9907149,13.0345535 62.7491062,14.4107178 64.0690918,14.4940549 C64.498816,14.521222 66.3338106,14.5054357 67.2816614,14.5054357" id="Fill-18" fill="#1F4066"></path>
                </g>
            </g>
        </g>
    </g>
</svg>