
<svg width="22px" height="29px" viewBox="0 0 22 29" version="1.1" xmlns="http://www.w3.org/2000/svg" xmlns:xlink="http://www.w3.org/1999/xlink">
    <g id="Symbols" stroke="none" stroke-width="1" fill="none" fill-rule="evenodd">
        <g id="header---black" transform="translate(-1540.000000, -21.000000)" fill="#2C2A29" fill-rule="nonzero">
            <g id="noun_bag_836849" transform="translate(1540.000000, 21.000000)">
                <path d="M21.440678,7.99618806 L17.1525424,7.99618806 L17.1525424,6.15374841 C17.1525424,2.76365947 14.3932203,0 11,0 C7.60677966,0 4.84745763,2.76365947 4.84745763,6.15374841 L4.84745763,7.99618806 L0.559322034,7.99618806 C0.261016949,7.99618806 0,8.25412961 0,8.54891995 L0,26.9733164 C0,28.0787802 0.93220339,29 2.05084746,29 L19.9491525,29 C21.0677966,29 22,28.0787802 22,26.9733164 L22,8.54891995 C22,8.21728081 21.7389831,7.99618806 21.440678,7.99618806 Z M5.96610169,6.11689962 C5.96610169,3.31639136 8.24067797,1.06861499 11,1.06861499 C13.759322,1.06861499 16.0338983,3.31639136 16.0338983,6.11689962 L16.0338983,7.95933926 L5.96610169,7.95933926 L5.96610169,6.11689962 Z M19.9491525,27.8945362 L2.05084746,27.8945362 C1.52881356,27.8945362 1.11864407,27.4891995 1.11864407,26.9733164 L1.11864407,9.10165184 L20.8813559,9.10165184 L20.8813559,26.9733164 C20.8813559,27.4891995 20.4711864,27.8945362 19.9491525,27.8945362 Z" id="Shape"></path>
            </g>
        </g>
    </g>
</svg>