
<svg width="26px" height="26px" viewBox="0 0 26 26" version="1.1" xmlns="http://www.w3.org/2000/svg" xmlns:xlink="http://www.w3.org/1999/xlink">
    <g id="Designs" stroke="none" stroke-width="1" fill="none" fill-rule="evenodd">
        <g id="Mobile---Product-Page" transform="translate(-320.000000, -2489.000000)" fill="#FFFFFF" fill-rule="nonzero">
            <g id="noun_Plus_669265" transform="translate(333.000000, 2502.000000) rotate(-315.000000) translate(-333.000000, -2502.000000) translate(320.000000, 2489.000000)">
                <path d="M13,0 C5.8318,0 0,5.8318 0,13 C0,20.1682 5.8318,26 13,26 C20.1682,26 26,20.1682 26,13 C26,5.8318 20.1682,0 13,0 Z M13,24.5555556 C6.62826667,24.5555556 1.44444444,19.3717333 1.44444444,13 C1.44444444,6.62826667 6.62826667,1.44444444 13,1.44444444 C19.3717333,1.44444444 24.5555556,6.62826667 24.5555556,13 C24.5555556,19.3717333 19.3717333,24.5555556 13,24.5555556 Z" id="Shape"></path>
                <path d="M17.2857143,12.2857143 L13.7142857,12.2857143 L13.7142857,8.71428571 C13.7142857,8.31971429 13.3945714,8 13,8 C12.6054286,8 12.2857143,8.31971429 12.2857143,8.71428571 L12.2857143,12.2857143 L8.71428571,12.2857143 C8.31971429,12.2857143 8,12.6054286 8,13 C8,13.3945714 8.31971429,13.7142857 8.71428571,13.7142857 L12.2857143,13.7142857 L12.2857143,17.2857143 C12.2857143,17.6802857 12.6054286,18 13,18 C13.3945714,18 13.7142857,17.6802857 13.7142857,17.2857143 L13.7142857,13.7142857 L17.2857143,13.7142857 C17.6802857,13.7142857 18,13.3945714 18,13 C18,12.6054286 17.6802857,12.2857143 17.2857143,12.2857143 Z" id="Path"></path>
            </g>
        </g>
    </g>
</svg>