
<svg width="23px" height="22px" viewBox="0 0 23 22" version="1.1" xmlns="http://www.w3.org/2000/svg" xmlns:xlink="http://www.w3.org/1999/xlink">
    <g id="Symbols" stroke="none" stroke-width="1" fill="none" fill-rule="evenodd">
        <g id="header---black" transform="translate(-1366.000000, -27.000000)" fill="#2C2A29" fill-rule="nonzero">
            <g id="noun_Heart_2089013" transform="translate(1366.000000, 27.000000)">
                <path d="M16.6290317,5.83794563e-06 L16.6072693,5.83794563e-06 C14.5999036,-0.00193820775 12.7083824,0.965806999 11.5,2.61300072 C10.2917142,0.965818433 8.40026702,-0.0019339343 6.39296843,5.83794563e-06 L6.3712034,5.83794563e-06 C4.63566309,0.00385975883 2.98045144,0.751938113 1.80473015,2.06383846 C0.540714089,3.46503089 -0.106728572,5.33886463 0.0143908519,7.24545279 C0.242441973,10.8746207 3.02449187,13.3780951 5.96999289,16.0284065 C7.75277052,17.6326444 9.59610793,19.29146 11.0091279,21.3015658 L11.5,21.9999942 L11.9908798,21.3015684 C13.4038998,19.2914706 15.2472372,17.6326549 17.0300148,16.0284091 C19.9755235,13.3780951 22.7575657,10.8746207 22.9856092,7.24545279 C23.1067287,5.33886082 22.4592831,3.46502364 21.1952622,2.06383058 C20.019606,0.751983756 18.3644896,0.0039115454 16.6290317,5.83794563e-06 Z M21.9423269,7.03000542 C21.7437738,10.1760767 19.2250773,12.4298474 16.3085527,15.0396791 C14.643924,16.5290112 12.9288163,18.0636652 11.5000001,19.9047569 C10.0711838,18.0636652 8.35607619,16.5290112 6.69144748,15.0396791 C3.7749229,12.4298474 1.25622637,10.1760767 1.05767328,7.03000542 C0.955769119,5.44961194 1.49465121,3.89598835 2.54777833,2.73395928 C3.51152925,1.66305675 4.86893968,1.05181084 6.29267165,1.0476228 L6.31045872,1.0476228 C8.25436927,1.04627105 10.0409542,2.13925117 10.9579435,3.89081733 L11.5000001,4.92276678 L12.0420566,3.89081733 C12.9589629,2.13916812 14.7456037,1.04615609 16.6895466,1.04762545 L16.7075882,1.04762545 C18.1312331,1.05187123 19.4885416,1.66311364 20.4522218,2.73396193 C21.5053483,3.89599036 22.0442303,5.44961283 21.9423269,7.03000542 Z" id="Shape"></path>
            </g>
        </g>
    </g>
</svg>