
<svg width="179px" height="17px" viewBox="0 0 179 17" version="1.1" xmlns="http://www.w3.org/2000/svg" xmlns:xlink="http://www.w3.org/1999/xlink">
    <defs>
        <polygon id="path-1" points="0.435161619 0.174013889 4.52267102 0.174013889 4.52267102 4.21104167 0.435161619 4.21104167"></polygon>
    </defs>
    <g id="Symbols" stroke="none" stroke-width="1" fill="none" fill-rule="evenodd">
        <g id="header---mobile" transform="translate(-55.000000, -20.000000)">
            <g id="logo--black" transform="translate(55.000000, 20.000000)">
                <g id="Group-22">
                    <g id="Group-3" transform="translate(174.326371, 0.298350)">
                        <mask id="mask-2" fill="white">
                            <use xlink:href="#path-1"></use>
                        </mask>
                        <g id="Clip-2"></g>
                        <path d="M4.52271775,2.18568056 C4.52271775,3.36481944 3.7141799,4.21104167 2.50838355,4.21104167 C1.28809896,4.21104167 0.435161619,3.37804167 0.435161619,2.18568056 C0.435161619,1.06179167 1.25865509,0.174013889 2.49342794,0.174013889 C3.72866815,0.174013889 4.52271775,1.08965278 4.52271775,2.18568056 Z M0.905796084,2.18568056 C0.905796084,3.14240278 1.55262637,3.822875 2.50838355,3.822875 C3.50807285,3.822875 4.05208329,3.14240278 4.05208329,2.19890278 C4.05208329,1.29790278 3.44918512,0.562180556 2.47893969,0.562180556 C1.37643055,0.562180556 0.905796084,1.33945833 0.905796084,2.18568056 Z M1.68489008,3.17073611 L1.68489008,1.13120833 L2.55231567,1.13120833 C3.08183786,1.13120833 3.37580914,1.32576389 3.37580914,1.70023611 C3.37580914,2.01851389 3.15521384,2.144125 3.02295013,2.18568056 C3.21410157,2.26879167 3.30243316,2.43501389 3.30243316,2.68481944 C3.30243316,2.80948611 3.30243316,3.01820833 3.34636527,3.17073611 L2.94910679,3.17073611 C2.90517467,3.08715278 2.89068642,2.76793056 2.89068642,2.64326389 C2.89068642,2.407625 2.78739922,2.35190278 2.52333916,2.35190278 L2.08214856,2.35190278 L2.08214856,3.17073611 L1.68489008,3.17073611 Z M2.09663681,2.03315278 L2.55231567,2.03315278 C2.80235483,2.03315278 2.94910679,1.96326389 2.94910679,1.74179167 C2.94910679,1.54723611 2.81731044,1.464125 2.53782742,1.464125 L2.09663681,1.464125 L2.09663681,2.03315278 Z" id="Fill-1" fill="#231F20" mask="url(#mask-2)"></path>
                    </g>
                    <path d="M2.20417702,4.45593611 C2.20417702,1.95363056 2.15510392,1.55224167 0.704409399,1.43418611 L0.0888924282,1.38696389 C-0.058326893,1.29251944 -0.0092537859,0.867991667 0.138432898,0.796686111 C1.36806475,0.844380556 2.20417702,0.867991667 3.23704909,0.867991667 C4.2213154,0.867991667 5.05696031,0.844380556 6.28705953,0.796686111 C6.43427885,0.867991667 6.48381932,1.29251944 6.33613264,1.38696389 L5.72108303,1.43418611 C4.27038851,1.55224167 4.2213154,1.95363056 4.2213154,4.45593611 L4.2213154,12.860075 C4.2213154,15.3623806 4.27038851,15.6929361 5.72108303,15.8582139 L6.33613264,15.9290472 C6.48381932,16.0234917 6.43427885,16.4484917 6.28705953,16.519325 C5.05696031,16.4721028 4.2213154,16.4484917 3.23704909,16.4484917 C2.20417702,16.4484917 1.36806475,16.4721028 0.138432898,16.519325 C-0.0092537859,16.4484917 -0.058326893,16.0707139 0.0888924282,15.9290472 L0.704409399,15.8582139 C2.15510392,15.6929361 2.20417702,15.3623806 2.20417702,12.860075 L2.20417702,4.45593611 Z" id="Fill-4" fill="#231F20"></path>
                    <path d="M27.9061467,12.4348389 C27.9061467,13.1431722 27.9061467,15.9524222 27.9799901,16.5658389 C27.9304496,16.70845 27.7827629,16.8260333 27.5121598,16.8260333 C27.2172538,16.4246444 26.504058,15.5982556 24.3640031,13.2612278 L18.6589039,7.02931111 C17.9943138,6.29689444 16.3220893,4.36125556 15.8056533,3.84228333 L15.7565802,3.84228333 C15.6579666,4.12514444 15.6336637,4.66867222 15.6336637,5.37700556 L15.6336637,10.5228111 C15.6336637,11.6325333 15.6579666,14.7015056 16.0762564,15.4098389 C16.2234757,15.6695611 16.7156089,15.8107556 17.3301911,15.8579778 L18.0929274,15.9288111 C18.2406141,16.1181722 18.2158439,16.4010333 18.0438543,16.5190889 C16.9371389,16.4723389 16.0762564,16.4482556 15.1663008,16.4482556 C14.1334287,16.4482556 13.469306,16.4723389 12.6084235,16.5190889 C12.4364339,16.4010333 12.4116637,16.0704778 12.5593504,15.9288111 L13.2230057,15.8579778 C13.7889822,15.7876167 14.1825018,15.64595 14.3054183,15.3857556 C14.6498648,14.5357556 14.6250945,11.6561444 14.6250945,10.5228111 L14.6250945,3.70014444 C14.6250945,3.03950556 14.6007916,2.54414444 14.0838883,2.00061667 C13.7394418,1.67006111 13.1491624,1.50478333 12.5593504,1.43395 L12.1410606,1.38672778 C11.9938413,1.24553333 11.9938413,0.890894444 12.1901337,0.79645 C13.2230057,0.867755556 14.5269483,0.867755556 14.969541,0.867755556 C15.3630606,0.867755556 15.780883,0.844144444 16.1010266,0.79645 C16.5926924,2.00061667 19.4950162,5.11681111 20.3063582,5.99042222 L22.6917786,8.56403333 C24.3892407,10.3811444 25.5941023,11.7028944 26.7498909,12.8367 L26.798964,12.8367 C26.8975775,12.7186444 26.8975775,12.3408667 26.8975775,11.8445611 L26.8975775,6.7932 C26.8975775,5.68347778 26.8728073,2.61450556 26.4054444,1.90617222 C26.2582251,1.69414444 25.8647055,1.55200556 24.8809065,1.43395 L24.4630841,1.38672778 C24.2901598,1.24553333 24.3153974,0.867755556 24.5121572,0.79645 C25.6436428,0.844144444 26.4792877,0.867755556 27.4140136,0.867755556 C28.4716559,0.867755556 29.1110084,0.844144444 29.9471206,0.79645 C30.1438804,0.914505556 30.1438804,1.24553333 29.9961937,1.38672778 L29.6522146,1.43395 C28.8651755,1.55200556 28.3730423,1.74089444 28.2748961,1.93025556 C27.8566063,2.78025556 27.9061467,5.70708889 27.9061467,6.7932 L27.9061467,12.4348389 Z" id="Fill-6" fill="#231F20"></path>
                    <path d="M48.3952906,4.40890278 C48.3952906,1.95381944 48.3457501,1.59965278 46.8945883,1.43390278 L46.501536,1.38715278 C46.3538493,1.29223611 46.4029225,0.867236111 46.5506091,0.796875 C47.6082514,0.844097222 48.4443637,0.867236111 49.4524655,0.867236111 L54.0760869,0.867236111 C55.6506326,0.867236111 57.1017945,0.867236111 57.3967005,0.796875 C57.5443872,1.19779167 57.6920739,2.89826389 57.7902201,3.93668056 C57.6920739,4.07834722 57.2980869,4.12509722 57.1756379,3.98390278 C56.8064211,2.87465278 56.5848911,2.04826389 55.3057188,1.74131944 C54.7897501,1.62326389 54.0022436,1.59965278 52.9202984,1.59965278 L51.1499277,1.59965278 C50.4114943,1.59965278 50.4114943,1.64640278 50.4114943,2.54409722 L50.4114943,7.265375 C50.4114943,7.92601389 50.4853376,7.92601389 51.223771,7.92601389 L52.6501627,7.92601389 C53.6830347,7.92601389 54.4453037,7.87926389 54.740677,7.78434722 C55.035583,7.68990278 55.2080399,7.54823611 55.330489,6.95795833 L55.5272488,5.990375 C55.6506326,5.84870833 56.0684551,5.84870833 56.1670687,6.01351389 C56.1670687,6.58065278 56.0684551,7.50148611 56.0684551,8.39823611 C56.0684551,9.24823611 56.1670687,10.1449861 56.1670687,10.6649028 C56.0684551,10.8301806 55.6506326,10.8301806 55.5272488,10.6885139 L55.3057188,9.76768056 C55.2080399,9.34220833 55.035583,8.98804167 54.5439172,8.86998611 C54.1994708,8.77601389 53.6091914,8.75193056 52.6501627,8.75193056 L51.223771,8.75193056 C50.4853376,8.75193056 50.4114943,8.77601389 50.4114943,9.38990278 L50.4114943,12.7185972 C50.4114943,13.9690417 50.4853376,14.7718194 50.8793245,15.1736806 C51.1746979,15.4570139 51.6911339,15.7162639 53.8550243,15.7162639 C55.7487789,15.7162639 56.4619747,15.6218194 57.0027136,15.3620972 C57.4457736,15.1259861 58.1098963,14.2995972 58.7492488,13.0727639 C58.9212384,12.9547083 59.2656849,13.0255417 59.3638311,13.2375694 C59.1918415,14.0639583 58.5772593,15.8820139 58.257583,16.5195139 C56.0436849,16.4722917 53.8550243,16.4482083 51.6663637,16.4482083 L49.4524655,16.4482083 C48.3952906,16.4482083 47.558711,16.4722917 46.1080164,16.5195139 C45.9603298,16.4482083 45.9112567,16.0704306 46.0589433,15.9292361 L46.8702854,15.8579306 C48.2719068,15.739875 48.3952906,15.3857083 48.3952906,12.9074861 L48.3952906,4.40890278 Z" id="Fill-8" fill="#231F20"></path>
                    <path d="M69.2766922,16.8259389 C67.210948,16.8259389 65.9074728,16.21205 65.4401099,15.9528 C65.1452039,15.4328833 64.8255277,13.7569667 64.7764546,12.6472444 C64.899371,12.4824389 65.2681204,12.4352167 65.3667339,12.5768833 C65.7354833,13.7805778 66.7440525,16.0939944 69.5963684,16.0939944 C71.6625799,16.0939944 72.6706817,14.7958556 72.6706817,13.3791889 C72.6706817,12.3407722 72.4496191,11.1838278 70.6540107,10.0745778 L68.3176634,8.61116111 C67.0875642,7.83152222 65.6616399,6.48616111 65.6616399,4.55052222 C65.6616399,2.30746667 67.4815512,0.489883333 70.6787809,0.489883333 C71.4415172,0.489883333 72.3267026,0.63155 72.9660551,0.796827778 C73.2857313,0.891272222 73.6301778,0.938494444 73.8269376,0.938494444 C74.0480003,1.50516111 74.2695303,2.82691111 74.2695303,3.81857778 C74.1709167,3.96024444 73.7778645,4.03107778 73.6544807,3.88941111 C73.3352718,2.75607778 72.6706817,1.22182778 70.3095642,1.22182778 C67.899841,1.22182778 67.383405,2.75607778 67.383405,3.84218889 C67.383405,5.21116111 68.5634963,6.20282778 69.4739193,6.74588333 L71.4415172,7.92596667 C72.9908253,8.84727222 74.5153632,10.2157722 74.5153632,12.4588278 C74.5153632,15.0551056 72.4739219,16.8259389 69.2766922,16.8259389" id="Fill-10" fill="#231F20"></path>
                    <path d="M85.4609561,16.8259389 C83.395212,16.8259389 82.0917368,16.21205 81.6243739,15.9528 C81.3290005,15.4328833 81.0093243,13.7569667 80.9602512,12.6472444 C81.0831676,12.4824389 81.451917,12.4352167 81.5505305,12.5768833 C81.9192799,13.7805778 82.9278491,16.0939944 85.7806324,16.0939944 C87.8463765,16.0939944 88.8544783,14.7958556 88.8544783,13.3791889 C88.8544783,12.3407722 88.6334157,11.1838278 86.8382747,10.0745778 L84.5019274,8.61116111 C83.2718282,7.83152222 81.8454366,6.48616111 81.8454366,4.55052222 C81.8454366,2.30746667 83.6658151,0.489883333 86.8625775,0.489883333 C87.6253138,0.489883333 88.5109666,0.63155 89.1503191,0.796827778 C89.4699953,0.891272222 89.8139744,0.938494444 90.0107342,0.938494444 C90.2322642,1.50516111 90.4533269,2.82691111 90.4533269,3.81857778 C90.3551807,3.96024444 89.9616611,4.03107778 89.8387446,3.88941111 C89.5190684,2.75607778 88.8544783,1.22182778 86.4938282,1.22182778 C84.0836376,1.22182778 83.5672016,2.75607778 83.5672016,3.84218889 C83.5672016,5.21116111 84.7477603,6.20282778 85.6577159,6.74588333 L87.6253138,7.92596667 C89.1746219,8.84727222 90.6996272,10.2157722 90.6996272,12.4588278 C90.6996272,15.0551056 88.6581859,16.8259389 85.4609561,16.8259389" id="Fill-12" fill="#231F20"></path>
                    <path d="M99.2839624,4.40890278 C99.2839624,1.95381944 99.2348893,1.59965278 97.7837274,1.43390278 L97.3902078,1.38715278 C97.2425211,1.29223611 97.2915943,0.867236111 97.4392809,0.796875 C98.4969232,0.844097222 99.3330355,0.867236111 100.341605,0.867236111 L104.965226,0.867236111 C106.539304,0.867236111 107.990466,0.867236111 108.285372,0.796875 C108.433059,1.19779167 108.580278,2.89826389 108.678892,3.93668056 C108.580278,4.07834722 108.186759,4.12509722 108.063842,3.98390278 C107.695093,2.87465278 107.473563,2.04826389 106.194858,1.74131944 C105.678422,1.62326389 104.891383,1.59965278 103.80897,1.59965278 L102.038599,1.59965278 C101.300633,1.59965278 101.300633,1.64640278 101.300633,2.54409722 L101.300633,7.265375 C101.300633,7.92601389 101.374477,7.92601389 102.111975,7.92601389 L103.538834,7.92601389 C104.571707,7.92601389 105.333975,7.87926389 105.628881,7.78434722 C105.924255,7.68990278 106.096244,7.54823611 106.219161,6.95795833 L106.416388,5.990375 C106.539304,5.84870833 106.957127,5.84870833 107.05574,6.01351389 C107.05574,6.58065278 106.957127,7.50148611 106.957127,8.39823611 C106.957127,9.24823611 107.05574,10.1449861 107.05574,10.6649028 C106.957127,10.8301806 106.539304,10.8301806 106.416388,10.6885139 L106.194858,9.76768056 C106.096244,9.34220833 105.924255,8.98804167 105.432589,8.86998611 C105.088143,8.77601389 104.497863,8.75193056 103.538834,8.75193056 L102.111975,8.75193056 C101.374477,8.75193056 101.300633,8.77601389 101.300633,9.38990278 L101.300633,12.7185972 C101.300633,13.9690417 101.374477,14.7718194 101.767996,15.1736806 C102.062902,15.4570139 102.579338,15.7162639 104.743696,15.7162639 C106.637451,15.7162639 107.351114,15.6218194 107.891853,15.3620972 C108.334445,15.1259861 108.998568,14.2995972 109.637921,13.0727639 C109.80991,12.9547083 110.154357,13.0255417 110.252503,13.2375694 C110.080981,14.0639583 109.465931,15.8820139 109.146255,16.5195139 C106.932824,16.4722917 104.743696,16.4482083 102.555036,16.4482083 L100.341605,16.4482083 C99.2839624,16.4482083 98.4478501,16.4722917 96.9966883,16.5195139 C96.8490016,16.4482083 96.7999285,16.0704306 96.9476151,15.9292361 L97.7594245,15.8579306 C99.161046,15.739875 99.2839624,15.3857083 99.2839624,12.9074861 L99.2839624,4.40890278 Z" id="Fill-14" fill="#231F20"></path>
                    <path d="M131.036132,12.4348389 C131.036132,13.1431722 131.036132,15.9524222 131.109975,16.5658389 C131.060902,16.70845 130.913216,16.8260333 130.64308,16.8260333 C130.347707,16.4246444 129.634511,15.5982556 127.494923,13.2612278 L121.788889,7.02931111 C121.124767,6.29689444 119.452542,4.36125556 118.936106,3.84228333 L118.886566,3.84228333 C118.788419,4.12514444 118.763649,4.66867222 118.763649,5.37700556 L118.763649,10.5228111 C118.763649,11.6325333 118.788419,14.7015056 119.206709,15.4098389 C119.354396,15.6695611 119.846062,15.8107556 120.461111,15.8579778 L121.222913,15.9288111 C121.370599,16.1181722 121.346297,16.4010333 121.17384,16.5190889 C120.067592,16.4723389 119.206709,16.4482556 118.296286,16.4482556 C117.263414,16.4482556 116.599759,16.4723389 115.738409,16.5190889 C115.566887,16.4010333 115.542116,16.0704778 115.689336,15.9288111 L116.353926,15.8579778 C116.919435,15.7876167 117.312955,15.64595 117.435871,15.3857556 C117.77985,14.5357556 117.755547,11.6561444 117.755547,10.5228111 L117.755547,3.70014444 C117.755547,3.03950556 117.730777,2.54414444 117.214341,2.00061667 C116.870362,1.67006111 116.280083,1.50478333 115.689336,1.43395 L115.271513,1.38672778 C115.123827,1.24553333 115.123827,0.890894444 115.320586,0.79645 C116.353926,0.867755556 117.656934,0.867755556 118.099994,0.867755556 C118.493513,0.867755556 118.911336,0.844144444 119.231012,0.79645 C119.723145,2.00061667 122.625002,5.11681111 123.436811,5.99042222 L125.822231,8.56403333 C127.519226,10.3811444 128.724555,11.7028944 129.880344,12.8367 L129.929417,12.8367 C130.02803,12.7186444 130.02803,12.3408667 130.02803,11.8445611 L130.02803,6.7932 C130.02803,5.68347778 130.00326,2.61450556 129.536364,1.90617222 C129.388678,1.69414444 128.994691,1.55200556 128.011359,1.43395 L127.593069,1.38672778 C127.42108,1.24553333 127.445383,0.867755556 127.642143,0.79645 C128.773628,0.844144444 129.610208,0.867755556 130.544466,0.867755556 C131.602109,0.867755556 132.241461,0.844144444 133.077573,0.79645 C133.274333,0.914505556 133.274333,1.24553333 133.127114,1.38672778 L132.7822,1.43395 C131.995161,1.55200556 131.503495,1.74089444 131.404881,1.93025556 C130.987059,2.78025556 131.036132,5.70708889 131.036132,6.7932 L131.036132,12.4348389 Z" id="Fill-16" fill="#231F20"></path>
                    <path d="M140.981522,2.49649722 C142.77713,1.15066389 145.064404,0.490025 147.621814,0.490025 C148.95006,0.490025 150.819044,0.749275 151.9753,1.05621944 C152.270673,1.12705278 152.442195,1.17474722 152.663725,1.15066389 C152.688496,1.69371944 152.811412,3.18121944 153.008172,4.621025 C152.885255,4.786775 152.516039,4.80991389 152.344049,4.66871944 C151.9753,3.06316389 150.868584,1.22149722 147.302138,1.22149722 C143.539399,1.22149722 140.342169,3.511775 140.342169,8.39833056 C140.342169,13.3557194 143.613242,16.0941361 147.647052,16.0941361 C150.819044,16.0941361 152.221133,14.111275 152.787109,12.7182194 C152.958631,12.6001639 153.327848,12.6473861 153.425994,12.8126639 C153.254005,14.0404417 152.614652,15.5983028 152.245903,16.0469139 C151.95053,16.0941361 151.655623,16.1885806 151.38502,16.283025 C150.843814,16.4719139 149.072976,16.8260806 147.499365,16.8260806 C145.285467,16.8260806 143.17065,16.4010806 141.375041,15.2441361 C139.407443,13.9459972 137.882438,11.7978583 137.882438,8.75249722 C137.882438,6.13213611 139.112537,3.88955278 140.981522,2.49649722" id="Fill-18" fill="#231F20"></path>
                    <path d="M161.224178,4.40890278 C161.224178,1.95381944 161.175105,1.59965278 159.723943,1.43390278 L159.330424,1.38715278 C159.182737,1.29223611 159.23181,0.867236111 159.379497,0.796875 C160.437139,0.844097222 161.273251,0.867236111 162.281821,0.867236111 L166.905442,0.867236111 C168.47952,0.867236111 169.930682,0.867236111 170.225588,0.796875 C170.373275,1.19779167 170.520962,2.89826389 170.619108,3.93668056 C170.520962,4.07834722 170.126975,4.12509722 170.004058,3.98390278 C169.635309,2.87465278 169.413779,2.04826389 168.135074,1.74131944 C167.618638,1.62326389 166.831599,1.59965278 165.749186,1.59965278 L163.978815,1.59965278 C163.240849,1.59965278 163.240849,1.64640278 163.240849,2.54409722 L163.240849,7.265375 C163.240849,7.92601389 163.314693,7.92601389 164.052659,7.92601389 L165.47905,7.92601389 C166.511922,7.92601389 167.274191,7.87926389 167.569565,7.78434722 C167.864471,7.68990278 168.036928,7.54823611 168.159377,6.95795833 L168.356604,5.990375 C168.47952,5.84870833 168.897343,5.84870833 168.995956,6.01351389 C168.995956,6.58065278 168.897343,7.50148611 168.897343,8.39823611 C168.897343,9.24823611 168.995956,10.1449861 168.995956,10.6649028 C168.897343,10.8301806 168.47952,10.8301806 168.356604,10.6885139 L168.135074,9.76768056 C168.036928,9.34220833 167.864471,8.98804167 167.372805,8.86998611 C167.028358,8.77601389 166.438079,8.75193056 165.47905,8.75193056 L164.052659,8.75193056 C163.314693,8.75193056 163.240849,8.77601389 163.240849,9.38990278 L163.240849,12.7185972 C163.240849,13.9690417 163.314693,14.7718194 163.708212,15.1736806 C164.003586,15.4570139 164.520022,15.7162639 166.683912,15.7162639 C168.577667,15.7162639 169.29133,15.6218194 169.832069,15.3620972 C170.274661,15.1259861 170.938784,14.2995972 171.578137,13.0727639 C171.750126,12.9547083 172.094573,13.0255417 172.192719,13.2375694 C172.021197,14.0639583 171.406147,15.8820139 171.086471,16.5195139 C168.87304,16.4722917 166.683912,16.4482083 164.495251,16.4482083 L162.281821,16.4482083 C161.224178,16.4482083 160.388066,16.4722917 158.936904,16.5195139 C158.789217,16.4482083 158.740144,16.0704306 158.887831,15.9292361 L159.69964,15.8579306 C161.101262,15.739875 161.224178,15.3857083 161.224178,12.9074861 L161.224178,4.40890278 Z" id="Fill-20" fill="#231F20"></path>
                </g>
            </g>
        </g>
    </g>
</svg>