
<svg width="36px" height="36px" viewBox="0 0 36 36" version="1.1" xmlns="http://www.w3.org/2000/svg" xmlns:xlink="http://www.w3.org/1999/xlink">
    <g id="Symbols" stroke="none" stroke-width="1" fill="none" fill-rule="evenodd">
        <g id="Footer-Desktop" transform="translate(-1524.000000, -19.000000)">
            <g id="Group-27" transform="translate(1525.000000, 20.000000)">
                <circle id="Oval" stroke="#2C2A29" cx="17.1929825" cy="17.1929825" r="17.1929825"></circle>
                <g id="Group-26" transform="translate(9.824561, 9.824561)" fill="#2C2A29">
                    <path d="M7.77533951,1.4033219e-13 C5.66367284,1.4033219e-13 5.39888889,0.00895061728 4.5695679,0.0467901235 C3.74197531,0.084537037 3.17675926,0.215987654 2.68219136,0.408209877 C2.17089506,0.606882716 1.73728395,0.872746914 1.305,1.305 C0.872746914,1.73728395 0.606882716,2.17089506 0.408209877,2.68219136 C0.215987654,3.17675926 0.084537037,3.74197531 0.0467901235,4.5695679 C0.00895061728,5.39888889 -7.79820652e-13,5.66367284 -7.79820652e-13,7.77533951 C-7.79820652e-13,9.88697531 0.00895061728,10.1517593 0.0467901235,10.9810802 C0.084537037,11.8086728 0.215987654,12.3738889 0.408209877,12.8684568 C0.606882716,13.3797531 0.872746914,13.8133642 1.305,14.2456481 C1.73728395,14.6779012 2.17089506,14.9437654 2.68219136,15.1424691 C3.17675926,15.3346605 3.74197531,15.4661111 4.5695679,15.503858 C5.39888889,15.5416975 5.66367284,15.5506481 7.77533951,15.5506481 C9.88697531,15.5506481 10.1517593,15.5416975 10.9810802,15.503858 C11.8086728,15.4661111 12.3738889,15.3346605 12.8684568,15.1424691 C13.3797531,14.9437654 13.8133642,14.6779012 14.2456481,14.2456481 C14.6779012,13.8133642 14.9437654,13.3797531 15.1424691,12.8684568 C15.3346605,12.3738889 15.4661111,11.8086728 15.503858,10.9810802 C15.5416975,10.1517593 15.5506481,9.88697531 15.5506481,7.77533951 C15.5506481,5.66367284 15.5416975,5.39888889 15.503858,4.5695679 C15.4661111,3.74197531 15.3346605,3.17675926 15.1424691,2.68219136 C14.9437654,2.17089506 14.6779012,1.73728395 14.2456481,1.305 C13.8133642,0.872746914 13.3797531,0.606882716 12.8684568,0.408209877 C12.3738889,0.215987654 11.8086728,0.084537037 10.9810802,0.0467901235 C10.1517593,0.00895061728 9.88697531,1.4033219e-13 7.77533951,1.4033219e-13 Z M7.77533951,1.40095679 C9.85141975,1.40095679 10.0973457,1.40888889 10.9172222,1.4462963 C11.6753086,1.4808642 12.0870062,1.60753086 12.3609877,1.71401235 C12.7239198,1.85506173 12.9829321,2.02354938 13.255,2.29564815 C13.5270988,2.56771605 13.6955864,2.8267284 13.8366358,3.18966049 C13.9431173,3.46364198 14.069784,3.87533951 14.1043519,4.63342593 C14.1417593,5.45330247 14.1496914,5.6992284 14.1496914,7.77533951 C14.1496914,9.85141975 14.1417593,10.0973457 14.1043519,10.9172222 C14.069784,11.6753086 13.9431173,12.0870062 13.8366358,12.3609877 C13.6955864,12.7239198 13.5270988,12.9829321 13.255,13.255 C12.9829321,13.5270988 12.7239198,13.6955864 12.3609877,13.8366358 C12.0870062,13.9431173 11.6753086,14.069784 10.9172222,14.1043519 C10.0974691,14.1417593 9.85157407,14.1496914 7.77533951,14.1496914 C5.69907407,14.1496914 5.45320988,14.1417593 4.63342593,14.1043519 C3.87533951,14.069784 3.46364198,13.9431173 3.18966049,13.8366358 C2.8267284,13.6955864 2.56771605,13.5270988 2.29564815,13.255 C2.02358025,12.9829321 1.85506173,12.7239198 1.71401235,12.3609877 C1.60753086,12.0870062 1.4808642,11.6753086 1.4462963,10.9172222 C1.40888889,10.0973457 1.40095679,9.85141975 1.40095679,7.77533951 C1.40095679,5.6992284 1.40888889,5.45330247 1.4462963,4.63342593 C1.4808642,3.87533951 1.60753086,3.46364198 1.71401235,3.18966049 C1.85506173,2.8267284 2.02354938,2.56771605 2.29564815,2.29564815 C2.56771605,2.02354938 2.8267284,1.85506173 3.18966049,1.71401235 C3.46364198,1.60753086 3.87533951,1.4808642 4.63342593,1.4462963 C5.45330247,1.40888889 5.6992284,1.40095679 7.77533951,1.40095679 Z" id="Fill-1"></path>
                    <path d="M7.77533951,10.3670988 C6.34391975,10.3670988 5.18354938,9.2067284 5.18354938,7.77533951 C5.18354938,6.34391975 6.34391975,5.18354938 7.77533951,5.18354938 C9.2067284,5.18354938 10.3670988,6.34391975 10.3670988,7.77533951 C10.3670988,9.2067284 9.2067284,10.3670988 7.77533951,10.3670988 Z M7.77533951,3.78259259 C5.57018519,3.78259259 3.78259259,5.57018519 3.78259259,7.77533951 C3.78259259,9.98046296 5.57018519,11.7680556 7.77533951,11.7680556 C9.98046296,11.7680556 11.7680556,9.98046296 11.7680556,7.77533951 C11.7680556,5.57018519 9.98046296,3.78259259 7.77533951,3.78259259 Z" id="Fill-4"></path>
                    <path d="M12.858858,3.62484568 C12.858858,4.14015432 12.4411111,4.55787037 11.9258025,4.55787037 C11.4105247,4.55787037 10.9927778,4.14015432 10.9927778,3.62484568 C10.9927778,3.10953704 11.4105247,2.69179012 11.9258025,2.69179012 C12.4411111,2.69179012 12.858858,3.10953704 12.858858,3.62484568" id="Fill-5"></path>
                </g>
            </g>
        </g>
    </g>
</svg>