
<svg width="60px" height="60px" viewBox="0 0 60 60" version="1.1" xmlns="http://www.w3.org/2000/svg" xmlns:xlink="http://www.w3.org/1999/xlink">
    <g id="Designs" stroke="none" stroke-width="1" fill="none" fill-rule="evenodd">
        <g id="Desktop---Product-Page" transform="translate(-849.000000, -291.000000)">
            <g id="Group-10" transform="translate(849.000000, 291.000000)">
                <g id="noun_Italy_1125283" transform="translate(14.000000, 11.000000)" fill="#000000" fill-rule="nonzero">
                    <path d="M33.7399021,25.6708069 L27.3784401,21.4617349 C27.1745471,21.3379387 27.0929899,21.0490808 27.1337685,20.8427538 L27.2561043,20.4300997 C27.3376615,20.1412418 27.1745471,19.8111185 26.8890968,19.7285877 C26.8483182,19.7285877 26.8075396,19.6873222 26.7259824,19.6873222 L24.7686095,19.6873222 C24.5647165,19.6873222 24.4016021,19.6047914 24.3200449,19.4397298 L20.2829632,13.4975105 L20.2421846,13.4562451 L16.0012099,8.58692652 C15.7973169,8.33933405 15.8380955,8.00921076 16.0419885,7.8028837 C16.0419885,7.8028837 16.0827671,7.8028837 16.0827671,7.76161829 L19.4673911,5.24442818 C19.6305056,5.12063194 19.7120628,4.9555703 19.7120628,4.79050865 L19.7120628,2.35584936 C19.7120628,2.10825689 19.589727,1.94319525 19.3858339,1.81939901 L15.2264165,0.0449863115 C15.0633021,-0.0375445118 14.9001876,0.00372089985 14.7370732,0.0862517231 L10.3329841,2.52091101 C10.2514269,2.56217642 10.1698697,2.60344183 10.0475339,2.60344183 L7.92704657,2.60344183 C7.76393216,2.60344183 7.60081775,2.68597266 7.47848194,2.8510343 L6.8260243,3.71760795 C6.66290989,3.96520042 6.29590246,4.00646583 6.05123085,3.84140418 C6.01045225,3.80013877 5.96967364,3.80013877 5.96967364,3.75887336 L5.317216,2.97483054 C5.15410159,2.76850348 4.86865137,2.72723807 4.62397975,2.8510343 L0.750012493,4.91430488 C0.586898082,4.99683571 0.505340876,5.12063194 0.464562274,5.28569359 L0.0159976434,7.4727604 C-0.0247809593,7.59655664 0.0159976434,7.76161829 0.0975548489,7.88541452 L2.17726359,11.5167707 C2.340378,11.7643632 2.66660682,11.8881594 2.91127844,11.7230978 L5.317216,10.4851355 C5.43955181,10.4026046 5.60266622,10.4026046 5.76578063,10.44387 L9.35429767,11.7230978 C9.43585488,11.7643632 9.51741208,11.8056286 9.59896929,11.8881594 L17.428461,21.6267966 C17.5100182,21.7505928 17.6731326,21.8331237 17.836247,21.8331237 L19.6305056,21.9569199 C19.7528414,21.9569199 19.8343986,21.9981853 19.9159558,22.0807161 L25.1356169,26.2485227 C25.2171741,26.2897881 25.2579527,26.3723189 25.2987313,26.4548498 L27.0114327,30.5401255 C27.0929899,30.7051872 27.0929899,30.8702488 27.0114327,30.994045 L25.5841816,33.8826238 C25.4618458,34.1714817 25.5841816,34.501605 25.8696318,34.6254013 C26.0735248,34.7079321 26.358975,34.6666667 26.5220894,34.501605 L29.5804846,31.1591067 C29.743599,30.994045 29.7843776,30.7051872 29.6620418,30.4988601 L28.0716763,27.7753429 C27.9493405,27.5690159 27.9901191,27.280158 28.1532335,27.1150963 L29.4581488,25.7533378 C29.6620418,25.5470107 29.9882707,25.5057453 30.1921637,25.7120723 L32.5981012,27.5690159 C32.8427728,27.7340775 33.2097803,27.6928121 33.3728947,27.4452196 C33.3728947,27.4452196 33.4136733,27.4039542 33.4136733,27.4039542 L33.9437951,26.4135843 C34.0661309,26.1659919 33.9845737,25.8358686 33.7399021,25.6708069 Z" id="Shape"></path>
                    <path d="M8.97902439,24.1531266 L8.14534139,22.4274184 C8.02028894,22.1464891 7.68681573,22.0260909 7.39502668,22.1464891 L4.64387276,23.3504716 C4.35208371,23.4708698 4.22703125,23.7919318 4.35208371,24.0728611 L5.35250331,26.320295 C5.39418746,26.4005605 5.39418746,26.4406933 5.39418746,26.5209588 L5.39418746,29.2499857 C5.39418746,29.3302512 5.39418746,29.4105167 5.43587161,29.4907822 L5.93608142,30.4539682 C6.06113387,30.7348975 6.43629122,30.8552957 6.68639612,30.6947647 C6.81144858,30.654632 6.89481688,30.5342337 6.93650103,30.4539682 L7.10323763,30.1329062 C7.18660593,29.9322425 7.35334253,29.8118442 7.56176328,29.8118442 L7.85355233,29.7717115 C8.10365724,29.7315787 8.35376214,29.530915 8.35376214,29.2901185 L9.02070854,24.4340558 C9.06239269,24.3537903 9.02070854,24.2333921 8.97902439,24.1531266 Z" id="Shape"></path>
                    <path d="M24.4462487,37.5036429 L23.8205927,36.5392657 C23.7371719,36.4134773 23.6954615,36.2457595 23.7371719,36.0780418 L24.4462487,33.6880634 C24.5296695,33.3945572 24.3628279,33.0591217 24.0708551,32.9752628 C23.9874343,32.9333333 23.9457239,32.9333333 23.8623031,32.9333333 L16.8966656,33.4784161 C16.6046928,33.5203456 16.3544304,33.7299928 16.3544304,34.0654284 L16.3544304,34.6524406 C16.3544304,34.8620878 16.4795616,35.0298056 16.6464032,35.155594 L19.5244211,36.7908423 L23.1532262,38.9292441 C23.4034886,39.0550324 23.6954615,39.013103 23.8623031,38.8034557 L24.3628279,38.2164435 C24.5713799,38.0067963 24.5713799,37.7132901 24.4462487,37.5036429 Z" id="Shape"></path>
                </g>
                <circle id="Oval" stroke="#000000" cx="30" cy="30" r="29.5"></circle>
            </g>
        </g>
    </g>
</svg>