<?xml version="1.0" encoding="utf-8"?>
<!-- Generator: Adobe Illustrator 21.0.0, SVG Export Plug-In . SVG Version: 6.00 Build 0)  -->
<svg version="1.1" id="Layer_1" xmlns="http://www.w3.org/2000/svg" xmlns:xlink="http://www.w3.org/1999/xlink" x="0px" y="0px"
	 viewBox="0 0 40 40" style="enable-background:new 0 0 40 40;" xml:space="preserve">
<style type="text/css">
	.st0{filter:url(#Adobe_OpacityMaskFilter);}
	.st1{fill:#FFFFFF;}
	.st2{mask:url(#mask-2);fill:#FEFEFE;}
	.st3{fill:#FEFEFE;}
</style>
<g id="UI-Kit">
	<g id="Desktop---1680px" transform="translate(-773.000000, -723.000000)">
		<g id="Group-6" transform="translate(773.000000, 723.000000)">
			<g id="Group-3">
				<g id="Clip-2">
				</g>
				<defs>
					<filter id="Adobe_OpacityMaskFilter" filterUnits="userSpaceOnUse" x="1" y="1.1" width="37.9" height="37.7">
						<feColorMatrix  type="matrix" values="1 0 0 0 0  0 1 0 0 0  0 0 1 0 0  0 0 0 1 0"/>
					</filter>
				</defs>
				<mask maskUnits="userSpaceOnUse" x="1" y="1.1" width="37.9" height="37.7" id="mask-2">
					<g class="st0">
						<polygon id="path-1" class="st1" points="1,1.1 38.9,1.1 38.9,38.8 1,38.8 						"/>
					</g>
				</mask>
				<path id="Fill-1" class="st2" d="M38,19.9c-0.1-1.1-0.2-2.2-0.4-3.2c-0.7-3.9-2.6-7.3-5.5-10c-4.3-3.8-9.3-5.3-15-4.5
					C13.3,2.8,9.9,4.5,7.1,7.4C4,10.5,2.3,14.4,2,18.8C1.8,22,2.4,25.1,3.9,28c3.9,7.6,12.3,11.3,20.5,9.3
					C32.3,35.4,38,28.2,38,19.9 M18.8,38.8c-3.9-0.1-8.3-1.8-12-5.3c-3.1-3-5-6.7-5.6-11C0.4,16.6,2.1,11.5,6,7.1
					C9,3.9,12.6,2,16.9,1.3C26.8-0.3,36,5.9,38.4,15.5c2,8.2-1.8,16.8-9.1,20.9C26.4,38,23.3,38.8,18.8,38.8"/>
			</g>
			<path id="Fill-4" class="st3" d="M17.7,25.7c-0.1,0.3-0.2,0.5-0.3,0.9c-0.2,0.7-1,0.3-0.8-0.2c1-2.4,2.6-4.2,4.7-5.7
				c0,0-3,1.4-4.5,4.1c-0.1-4.9,3.1-5.3,7.6-6.4C24,22.2,23.1,25.5,17.7,25.7 M26.6,18.2c-1-1.6-2.2-3.1-3.3-4.7
				c-1.2-1.7-2.3-3.3-2.8-5.5c-0.1,0.2-0.1,0.4-0.2,0.5c0,0.1-0.1,0.3-0.1,0.4c-0.6,1.7-1.6,3.2-2.7,4.6c-1.1,1.5-2.2,3-3.2,4.5
				c-1.1,1.8-1.6,3.8-1.3,5.9c0.6,3.3,3.6,5.9,7.1,6c4.2,0.1,7.8-3.2,7.8-7.2C28,21.1,27.5,19.6,26.6,18.2"/>
		</g>
	</g>
</g>
</svg>
