<svg version="1.1" id="Layer_1" xmlns="http://www.w3.org/2000/svg" xmlns:xlink="http://www.w3.org/1999/xlink" x="0px" y="0px"
	 viewBox="0 0 40 40" style="enable-background:new 0 0 40 40;" xml:space="preserve">
<style type="text/css">
	.st0{filter:url(#Adobe_OpacityMaskFilter);}
	.st1{fill:#FFFFFF;}
	.st2{mask:url(#mask-2);fill:#FEFEFE;}
	.st3{fill:#FEFEFE;}
</style>
<g id="UI-Kit">
	<g id="Desktop---1680px" transform="translate(-527.000000, -723.000000)">
		<g id="Group-6" transform="translate(527.000000, 723.000000)">
			<g id="Group-3">
				<g id="Clip-2">
				</g>
				<defs>
					<filter id="Adobe_OpacityMaskFilter" filterUnits="userSpaceOnUse" x="1" y="1.1" width="37.9" height="37.9">
						<feColorMatrix  type="matrix" values="1 0 0 0 0  0 1 0 0 0  0 0 1 0 0  0 0 0 1 0"/>
					</filter>
				</defs>
				<mask maskUnits="userSpaceOnUse" x="1" y="1.1" width="37.9" height="37.9" id="mask-2">
					<g class="st0">
						<polygon id="path-1" class="st1" points="1,1.1 38.9,1.1 38.9,39 1,39 						"/>
					</g>
				</mask>
				<path id="Fill-1" class="st2" d="M38,20c-0.1-1.1-0.2-2.2-0.4-3.3c-0.7-4-2.6-7.3-5.5-10c-4.3-3.9-9.3-5.4-15-4.5
					C13.3,2.8,9.9,4.6,7.1,7.4C4,10.6,2.3,14.4,2,18.9c-0.2,3.3,0.4,6.4,1.9,9.2c3.9,7.6,12.3,11.4,20.5,9.4
					C32.3,35.6,38,28.3,38,20 M18.8,39c-3.9-0.1-8.3-1.8-12-5.4c-3.1-3-5-6.7-5.6-11.1C0.4,16.7,2.1,11.5,6,7.2
					C9,3.9,12.6,2,16.9,1.3C26.8-0.3,36,5.9,38.4,15.6c2,8.2-1.8,16.9-9.1,21C26.4,38.2,23.3,39,18.8,39"/>
			</g>
			<path id="Fill-4" class="st3" d="M22.1,29.3c1.4-0.5,2.9-2.4,3.4-4.3c0.5-1.9,0.1-4.3-0.8-5.7C26,23.3,25.3,26.7,22.1,29.3 M20,8
				c0.5,2.2,1.5,4,2.6,5.7c1,1.6,2.1,3.2,3.1,4.9c0.8,1.5,1.3,3.1,1.3,4.8c0,4.3-3.3,7.7-7.3,7.6c-3.2-0.1-6-2.8-6.6-6.3
				c-0.4-2.2,0.1-4.3,1.2-6.2c0.9-1.6,1.9-3.2,3-4.7c1-1.5,1.9-3.1,2.5-4.8c0-0.2,0.1-0.3,0.1-0.5C19.9,8.4,19.9,8.3,20,8"/>
		</g>
	</g>
</g>
</svg>
