
<svg width="25px" height="26px" viewBox="0 0 25 26" version="1.1" xmlns="http://www.w3.org/2000/svg" xmlns:xlink="http://www.w3.org/1999/xlink">
    <g id="Symbols" stroke="none" stroke-width="1" fill="none" fill-rule="evenodd">
        <g id="header---black" transform="translate(-1304.000000, -25.000000)" fill="#2C2A29" fill-rule="nonzero">
            <g id="noun_Search_687065" transform="translate(1304.000000, 25.000000)">
                <g id="Group">
                    <path d="M9.28234501,0.118331296 C4.16342973,0.118331296 0,4.36811332 0,9.59319902 C0,14.8182945 4.16342973,19.0680667 9.28234501,19.0680667 C11.6131079,19.0680667 13.7427573,18.1823528 15.3738839,16.7299798 L23.8760318,25.4084685 C24.1125831,25.6570368 24.5475308,25.6650251 24.7862618,25.4186785 C25.0249925,25.1722993 25.0223707,24.7180611 24.7762593,24.4793597 L16.2841139,15.811081 C17.7044465,14.1467695 18.56469,11.9699372 18.56469,9.59319902 C18.56469,4.36811332 14.4012603,0.118331296 9.28234501,0.118331296 Z M9.28234501,1.4252096 C13.709322,1.4252096 17.2843666,5.07440263 17.2843666,9.59319902 C17.2843666,14.1119921 13.709322,17.7611884 9.28234501,17.7611884 C4.85536806,17.7611884 1.28032345,14.1119921 1.28032345,9.59319902 C1.28032345,5.07440263 4.85536806,1.4252096 9.28234501,1.4252096 Z" id="Shape"></path>
                </g>
            </g>
        </g>
    </g>
</svg>