
<svg width="13px" height="17px" viewBox="0 0 13 17" version="1.1" xmlns="http://www.w3.org/2000/svg" xmlns:xlink="http://www.w3.org/1999/xlink">
    <g id="Designs" stroke="none" stroke-width="1" fill="none" fill-rule="evenodd">
        <g id="Desktop---Product-Page" transform="translate(-1082.000000, -296.000000)" fill="#2C2A29" fill-rule="nonzero">
            <g id="noun_drop_1877923" transform="translate(1082.000000, 296.000000)">
                <g id="Group">
                    <path d="M12.188,11.0056522 C12.188,11.2421739 12.17,11.4768478 12.14,11.7133696 C12.134,11.7558696 12.146,11.6782609 12.146,11.6782609 C12.144,11.6911957 12.142,11.7041304 12.14,11.7152174 C12.136,11.7447826 12.13,11.7743478 12.126,11.8020652 C12.116,11.8593478 12.104,11.9184783 12.092,11.9757609 C12.068,12.0903261 12.04,12.2048913 12.008,12.3176087 C11.948,12.5338043 11.872,12.7463043 11.784,12.9551087 C11.772,12.9809783 11.76,13.0086957 11.75,13.0345652 C11.714,13.1140217 11.772,12.9883696 11.744,13.0475 C11.718,13.0992391 11.694,13.1528261 11.668,13.2045652 C11.618,13.3043478 11.564,13.4022826 11.506,13.5002174 C11.39,13.696087 11.262,13.886413 11.122,14.0675 C11.088,14.11 11.054,14.1525 11.02,14.195 C10.964,14.2633696 11.054,14.1561957 11.01,14.206087 C10.99,14.2282609 10.972,14.2504348 10.952,14.2726087 C10.874,14.3613043 10.794,14.4463043 10.712,14.5294565 C10.552,14.6902174 10.382,14.843587 10.204,14.9858696 C10.16,15.0209783 10.118,15.0542391 10.074,15.0875 C10.05,15.1059783 10.026,15.1226087 10.002,15.141087 C9.992,15.1484783 9.982,15.1558696 9.972,15.1632609 C9.902,15.215 10.022,15.1281522 9.98,15.1577174 C9.884,15.2223913 9.79,15.2870652 9.692,15.3480435 C9.492,15.4736957 9.282,15.586413 9.066,15.6880435 C8.96,15.7379348 8.852,15.7859783 8.742,15.8303261 C8.73,15.8358696 8.704,15.8488043 8.694,15.8506522 C8.694,15.8506522 8.77,15.821087 8.728,15.8377174 C8.704,15.8469565 8.678,15.8561957 8.654,15.8654348 C8.592,15.8876087 8.53,15.9097826 8.466,15.9319565 C8.238,16.0077174 8.006,16.0723913 7.768,16.1222826 C7.644,16.1481522 7.52,16.1721739 7.394,16.1906522 C7.366,16.1943478 7.34,16.1980435 7.312,16.2017391 C7.298,16.203587 7.192,16.2146739 7.256,16.2091304 C7.322,16.203587 7.212,16.2128261 7.2,16.2146739 C7.168,16.2183696 7.136,16.2220652 7.104,16.223913 C6.848,16.2479348 6.592,16.2553261 6.334,16.2497826 C6.208,16.246087 6.084,16.2405435 5.958,16.2294565 C5.898,16.223913 5.838,16.2183696 5.78,16.2128261 C5.766,16.2109783 5.662,16.1925 5.724,16.2072826 C5.786,16.2202174 5.67,16.1998913 5.654,16.1980435 C5.408,16.1629348 5.164,16.1130435 4.926,16.0483696 C4.81,16.0169565 4.694,15.9836957 4.58,15.9467391 C4.526,15.9282609 4.472,15.9097826 4.418,15.8913043 C4.388,15.8802174 4.36,15.8709783 4.332,15.8598913 C4.32,15.8561957 4.308,15.8506522 4.294,15.8451087 C4.244,15.8266304 4.296,15.8506522 4.316,15.8543478 C4.264,15.8451087 4.206,15.81 4.158,15.7896739 C4.098,15.7638043 4.038,15.7379348 3.978,15.7102174 C3.872,15.6603261 3.766,15.608587 3.664,15.5531522 C3.454,15.4422826 3.254,15.3184783 3.06,15.1854348 C3.04,15.1725 3.012,15.1577174 2.998,15.141087 C3.004,15.1466304 3.072,15.1946739 3.016,15.1540217 C3.006,15.1466304 2.996,15.1392391 2.986,15.1318478 C2.938,15.0967391 2.89,15.0597826 2.844,15.0246739 C2.754,14.9544565 2.666,14.8805435 2.58,14.8066304 C2.406,14.6532609 2.242,14.4906522 2.088,14.3206522 C2.058,14.2873913 1.996,14.2375 1.982,14.1986957 C2,14.2467391 2.02,14.2448913 1.996,14.2153261 C1.988,14.206087 1.98,14.1968478 1.972,14.1857609 C1.95,14.1598913 1.93,14.1340217 1.91,14.1081522 C1.84,14.0194565 1.774,13.928913 1.71,13.8365217 C1.58,13.6480435 1.462,13.4521739 1.356,13.2507609 C1.332,13.2027174 1.306,13.1546739 1.284,13.1066304 C1.274,13.0844565 1.262,13.0622826 1.252,13.0401087 C1.222,12.9791304 1.256,13.0567391 1.262,13.0604348 C1.252,13.0511957 1.246,13.0271739 1.242,13.0142391 C1.196,12.9070652 1.152,12.7998913 1.112,12.6908696 C1.036,12.4783696 0.972,12.2603261 0.924,12.0404348 C0.912,11.9868478 0.902,11.9332609 0.892,11.8796739 C0.882,11.8223913 0.856,11.7484783 0.86,11.6911957 C0.86,11.6893478 0.87,11.7688043 0.866,11.7263043 C0.864,11.7133696 0.862,11.7004348 0.86,11.6875 C0.856,11.6579348 0.852,11.6283696 0.85,11.5988043 C0.844,11.5396739 0.838,11.4805435 0.834,11.4195652 C0.818,11.1978261 0.814,10.976087 0.824,10.7543478 C0.828,10.6545652 0.836,10.5547826 0.846,10.455 C0.85,10.4069565 0.856,10.358913 0.862,10.3108696 C0.866,10.285 0.868,10.2591304 0.872,10.2332609 C0.874,10.2221739 0.876,10.211087 0.876,10.2 C0.884,10.1334783 0.866,10.2665217 0.872,10.2203261 C0.904,10.0152174 0.942,9.81195652 0.99,9.61054348 C1.094,9.17815217 1.236,8.75315217 1.402,8.33923913 C1.446,8.23206522 1.49,8.12673913 1.536,8.01956522 C1.548,7.99184783 1.56,7.96413043 1.572,7.93641304 C1.578,7.92347826 1.612,7.84771739 1.59,7.8976087 C1.566,7.94934783 1.608,7.85880435 1.614,7.84586957 C1.628,7.81445652 1.644,7.78119565 1.66,7.74978261 C1.764,7.5298913 1.876,7.31184783 1.992,7.0975 C2.512,6.13478261 3.128,5.2201087 3.782,4.33130435 C4.148,3.83423913 4.528,3.34641304 4.914,2.86228261 C5.118,2.60913043 5.322,2.35782609 5.53,2.10652174 C5.58,2.04554348 5.63,1.98641304 5.68,1.92543478 C5.704,1.89771739 5.726,1.87 5.75,1.84228261 C5.79,1.79423913 5.718,1.88108696 5.758,1.83304348 C5.774,1.81456522 5.79,1.79608696 5.804,1.7776087 C5.91,1.6501087 6.018,1.52445652 6.124,1.39695652 C6.342,1.13826087 6.562,0.881413043 6.784,0.626413043 C6.596,0.626413043 6.406,0.626413043 6.218,0.626413043 C6.556,1.01815217 6.89,1.4098913 7.222,1.80532609 C7.242,1.82934783 7.262,1.85152174 7.28,1.87554348 C7.242,1.82934783 7.28,1.8773913 7.288,1.88478261 C7.326,1.93097826 7.366,1.97717391 7.404,2.02336957 C7.488,2.125 7.572,2.22663043 7.656,2.32826087 C7.808,2.5148913 7.96,2.70152174 8.112,2.88815217 C8.682,3.59771739 9.234,4.32021739 9.752,5.0648913 C10.212,5.72641304 10.646,6.40641304 11.026,7.11043478 C11.116,7.27858696 11.204,7.44673913 11.286,7.61673913 C11.322,7.6925 11.36,7.76826087 11.394,7.84402174 C11.404,7.86434783 11.414,7.88282609 11.422,7.90315217 C11.388,7.81815217 11.41,7.87728261 11.42,7.8976087 C11.44,7.9401087 11.458,7.98445652 11.478,8.02880435 C11.616,8.34293478 11.738,8.6626087 11.844,8.98597826 C11.956,9.33336957 12.046,9.68630435 12.108,10.0447826 C12.116,10.0854348 12.122,10.126087 12.128,10.168587 C12.132,10.1944565 12.134,10.2720652 12.126,10.1593478 C12.128,10.1815217 12.132,10.2036957 12.136,10.2258696 C12.148,10.3108696 12.156,10.3958696 12.164,10.4808696 C12.18,10.6601087 12.188,10.8319565 12.188,11.0056522 C12.188,11.1996739 12.372,11.3844565 12.588,11.3752174 C12.804,11.3659783 12.988,11.2126087 12.988,11.0056522 C12.986,9.61793478 12.506,8.27826087 11.87,7.03467391 C11.096,5.52315217 10.074,4.12619565 9.008,2.78097826 C8.29,1.87554348 7.542,0.990434783 6.786,0.112717391 C6.662,-0.0314130435 6.344,-0.0314130435 6.22,0.112717391 C5.324,1.14934783 4.442,2.19891304 3.61,3.2798913 C2.894,4.20934783 2.212,5.16652174 1.62,6.16804348 C1.106,7.04206522 0.652,7.95858696 0.356,8.9176087 C0.09,9.78054348 -0.05,10.6970652 0.048,11.5932609 C0.154,12.5670652 0.506,13.5131522 1.098,14.3261957 C1.676,15.1207609 2.454,15.7896739 3.362,16.2516304 C4.296,16.7265217 5.352,16.9833696 6.418,16.9963043 C7.492,17.0092391 8.562,16.7690217 9.514,16.3107609 C10.436,15.8654348 11.226,15.2076087 11.824,14.4241304 C12.436,13.6221739 12.806,12.6853261 12.94,11.7133696 C12.972,11.4786957 12.988,11.2421739 12.988,11.0056522 C12.988,10.8116304 12.804,10.6268478 12.588,10.636087 C12.37,10.6434783 12.188,10.7968478 12.188,11.0056522 Z" id="Path"></path>
                    <path d="M4.71,13.5926087 C4.686,13.5759783 4.662,13.5593478 4.638,13.5445652 C4.556,13.4891304 4.702,13.5944565 4.624,13.5353261 C4.582,13.503913 4.54,13.4725 4.498,13.4392391 C4.408,13.3671739 4.322,13.291413 4.24,13.2119565 C4.162,13.1361957 4.086,13.0567391 4.014,12.9754348 C4.006,12.9661957 3.98,12.9421739 3.978,12.9329348 C3.986,12.9440217 3.996,12.9532609 4.004,12.9643478 C3.992,12.9495652 3.98,12.9347826 3.968,12.92 C3.93,12.8719565 3.894,12.823913 3.858,12.7740217 C3.796,12.6871739 3.736,12.5966304 3.682,12.5042391 C3.658,12.463587 3.636,12.4229348 3.614,12.3822826 C3.6,12.3582609 3.588,12.3323913 3.576,12.3083696 C3.568,12.2898913 3.508,12.1808696 3.556,12.271413 C3.456,12.0866304 3.398,11.8630435 3.352,11.6616304 C3.342,11.6154348 3.332,11.5692391 3.324,11.5230435 C3.32,11.4953261 3.312,11.4676087 3.31,11.4398913 C3.318,11.5396739 3.312,11.443587 3.31,11.4251087 C3.296,11.3105435 3.29,11.1959783 3.288,11.081413 C3.286,10.8707609 3.298,10.6601087 3.322,10.4513043 C3.328,10.4051087 3.33,10.3570652 3.34,10.3127174 C3.318,10.4106522 3.34,10.3182609 3.342,10.2997826 C3.346,10.2720652 3.352,10.2443478 3.356,10.2166304 C3.376,10.103913 3.4,9.98934783 3.426,9.87847826 C3.48,9.6548913 3.548,9.43315217 3.628,9.2151087 C3.676,9.08576087 3.728,8.95826087 3.784,8.8326087 C3.826,8.73652174 3.764,8.8751087 3.79,8.81597826 C3.806,8.78086957 3.822,8.74576087 3.84,8.71065217 C3.874,8.64043478 3.91,8.57021739 3.946,8.5 C4.09,8.22467391 4.252,7.96043478 4.428,7.70173913 C4.538,7.53728261 4.472,7.28782609 4.284,7.19543478 C4.088,7.09934783 3.856,7.15293478 3.736,7.32847826 C3.12,8.23576087 2.686,9.23913043 2.538,10.3090217 C2.408,11.2588043 2.546,12.2159783 3.094,13.0438043 C3.406,13.515 3.82,13.9104348 4.306,14.2319565 C4.476,14.3446739 4.758,14.2652174 4.854,14.098913 C4.962,13.908587 4.892,13.7145652 4.71,13.5926087 Z" id="Path"></path>
                </g>
            </g>
        </g>
    </g>
</svg>