
<svg width="36px" height="36px" viewBox="0 0 36 36" version="1.1" xmlns="http://www.w3.org/2000/svg" xmlns:xlink="http://www.w3.org/1999/xlink">
    <g id="Symbols" stroke="none" stroke-width="1" fill="none" fill-rule="evenodd">
        <g id="Footer-Desktop" transform="translate(-1469.000000, -19.000000)">
            <g id="Group-21" transform="translate(1470.000000, 20.000000)">
                <circle id="Oval" stroke="#2C2A29" cx="17.1929825" cy="17.1929825" r="17.1929825"></circle>
                <path d="M24.7418902,12.4395676 C24.1508319,11.745219 23.0595661,11.4619883 20.9754914,11.4619883 L13.410315,11.4619883 C11.2785437,11.4619883 10.1687908,11.7634886 9.57995095,12.5027281 C9.00584795,13.2234893 9.00584795,14.285474 9.00584795,15.7552881 L9.00584795,18.5567459 C9.00584795,21.4042431 9.68701754,22.8499935 13.410315,22.8499935 L20.9755442,22.8499935 C22.782841,22.8499935 23.7843124,22.6000656 24.4322052,21.9873038 C25.0966308,21.3589345 25.380117,20.332967 25.380117,18.5567459 L25.380117,15.7552881 C25.380117,14.2052445 25.3356952,13.1369959 24.7418902,12.4395676 Z M19.5181815,17.5427841 L16.0828598,19.3170738 C16.0060592,19.3567449 15.9220751,19.3764238 15.8381966,19.3764238 C15.7432258,19.3764238 15.6484663,19.3511596 15.564535,19.3009443 C15.4064969,19.2063079 15.3099943,19.0370272 15.3099943,18.8544357 L15.3099943,15.3172357 C15.3099943,15.1349574 15.4062328,14.9658333 15.563954,14.8711447 C15.721728,14.776456 15.9179551,14.7699834 16.081645,14.8540235 L19.5169666,16.6168816 C19.6917487,16.7065592 19.8015091,16.8848703 19.8017733,17.0794152 C19.8019845,17.2741168 19.6926995,17.4526889 19.5181815,17.5427841 Z" id="XMLID_823_" fill="#2C2A29" fill-rule="nonzero"></path>
            </g>
        </g>
    </g>
</svg>